<svg width="370" height="389" xmlns="http://www.w3.org/2000/svg" xmlns:xlink="http://www.w3.org/1999/xlink" xml:space="preserve" overflow="hidden"><g transform="translate(3 -111)"><path d="M331.018 34.2849C341.267 34.2849 349.576 42.5933 349.576 52.8423L349.576 340.483C349.576 350.732 341.267 359.04 331.018 359.04L43.378 359.04C33.129 359.04 24.8206 350.732 24.8206 340.483L24.8206 52.8423C24.8206 42.5933 33.129 34.2849 43.378 34.2849Z" stroke="#231F20" stroke-width="1.15984" stroke-miterlimit="10" fill="#FFFFFF" transform="matrix(1 0 0 1.00129 -2.78571 111)"/><path d="M201.395 168.223 229.834 168.223 229.834 196.662 201.395 196.662Z" stroke="#FFFFFF" stroke-width="1.15984" stroke-miterlimit="10" fill="#231F20" transform="matrix(1 0 0 1.00129 -2.78571 111)"/><path d="M201.395 139.784 229.834 139.784 229.834 168.223 201.395 168.223Z" stroke="#FFFFFF" stroke-width="1.15984" stroke-miterlimit="10" fill="#231F20" transform="matrix(1 0 0 1.00129 -2.78571 111)"/><path d="M201.395 111.298 229.834 111.298 229.834 139.738 201.395 139.738Z" stroke="#FFFFFF" stroke-width="1.15984" stroke-miterlimit="10" fill="#231F20" transform="matrix(1 0 0 1.00129 -2.78571 111)"/><path d="M172.955 82.9054 201.395 82.9054 201.395 111.345 172.955 111.345Z" stroke="#FFFFFF" stroke-width="1.15984" stroke-miterlimit="10" fill="#231F20" transform="matrix(1 0 0 1.00129 -2.78571 111)"/><path d="M144.516 82.9054 172.955 82.9054 172.955 111.345 144.516 111.345Z" stroke="#FFFFFF" stroke-width="1.15984" stroke-miterlimit="10" fill="#231F20" transform="matrix(1 0 0 1.00129 -2.78571 111)"/><path d="M116.077 82.9054 144.516 82.9054 144.516 111.345 116.077 111.345Z" stroke="#FFFFFF" stroke-width="1.15984" stroke-miterlimit="10" fill="#231F20" transform="matrix(1 0 0 1.00129 -2.78571 111)"/><path d="M87.6375 111.345 116.077 111.345 116.077 139.784 87.6375 139.784Z" stroke="#FFFFFF" stroke-width="1.15984" stroke-miterlimit="10" fill="#231F20" transform="matrix(1 0 0 1.00129 -2.78571 111)"/><path d="M87.6375 139.784 116.077 139.784 116.077 168.223 87.6375 168.223Z" stroke="#FFFFFF" stroke-width="1.15984" stroke-miterlimit="10" fill="#231F20" transform="matrix(1 0 0 1.00129 -2.78571 111)"/><path d="M116.077 196.662 144.516 196.662 144.516 225.102 116.077 225.102Z" stroke="#FFFFFF" stroke-width="1.15984" stroke-miterlimit="10" fill="#231F20" transform="matrix(1 0 0 1.00129 -2.78571 111)"/><path d="M87.6375 196.662 116.077 196.662 116.077 225.102 87.6375 225.102Z" stroke="#FFFFFF" stroke-width="1.15984" stroke-miterlimit="10" fill="#231F20" transform="matrix(1 0 0 1.00129 -2.78571 111)"/><path d="M87.6375 168.223 116.077 168.223 116.077 196.662 87.6375 196.662Z" stroke="#FFFFFF" stroke-width="1.15984" stroke-miterlimit="10" fill="#231F20" transform="matrix(1 0 0 1.00129 -2.78571 111)"/><path d="M144.516 139.784 172.955 139.784 172.955 168.223 144.516 168.223Z" stroke="#FFFFFF" stroke-width="1.15984" stroke-miterlimit="10" fill="#39B54A" transform="matrix(1 0 0 1.00129 -2.78571 111)"/><path d="M87.6375 225.102 116.077 225.102 116.077 253.541 87.6375 253.541Z" stroke="#FFFFFF" stroke-width="1.15984" stroke-miterlimit="10" fill="#231F20" transform="matrix(1 0 0 1.00129 -2.78571 111)"/><path d="M87.6375 253.541 116.077 253.541 116.077 281.98 87.6375 281.98Z" stroke="#FFFFFF" stroke-width="1.15984" stroke-miterlimit="10" fill="#231F20" transform="matrix(1 0 0 1.00129 -2.78571 111)"/><path d="M87.6375 281.98 116.077 281.98 116.077 310.42 87.6375 310.42Z" stroke="#FFFFFF" stroke-width="1.15984" stroke-miterlimit="10" fill="#231F20" transform="matrix(1 0 0 1.00129 -2.78571 111)"/><path d="M144.516 196.709 172.955 196.709 172.955 225.148 144.516 225.148Z" stroke="#FFFFFF" stroke-width="1.15984" stroke-miterlimit="10" fill="#231F20" transform="matrix(1 0 0 1.00129 -2.78571 111)"/><path d="M172.955 196.755 201.395 196.755 201.395 225.195 172.955 225.195Z" stroke="#FFFFFF" stroke-width="1.15984" stroke-miterlimit="10" fill="#662D91" transform="matrix(1 0 0 1.00129 -2.78571 111)"/><path d="M229.834 225.195 229.834 196.755" stroke="#FFFFFF" stroke-width="1.15984" stroke-miterlimit="10" fill="none" transform="matrix(1 0 0 1.00129 -2.78571 111)"/><path d="M286.712 225.148 286.712 253.587" stroke="#FFFFFF" stroke-width="1.15984" stroke-miterlimit="10" fill="none" transform="matrix(1 0 0 1.00129 -2.78571 111)"/><path d="M144.516 253.541 172.955 253.541 172.955 281.98 144.516 281.98Z" stroke="#FFFFFF" stroke-width="1.15984" stroke-miterlimit="10" fill="#EC008C" transform="matrix(1 0 0 1.00129 -2.78571 111)"/><path d="M144.516 282.027 172.955 282.027 172.955 310.466 144.516 310.466Z" stroke="#FFFFFF" stroke-width="1.15984" stroke-miterlimit="10" fill="#EC008C" transform="matrix(1 0 0 1.00129 -2.78571 111)"/><path d="M144.516 225.102 172.955 225.102 172.955 253.541 144.516 253.541Z" stroke="#FFFFFF" stroke-width="1.15984" stroke-miterlimit="10" fill="#EC008C" transform="matrix(1 0 0 1.00129 -2.78571 111)"/><path d="M144.516 253.541 172.955 253.541 172.955 281.98 144.516 281.98Z" stroke="#FFFFFF" stroke-width="1.15984" stroke-miterlimit="10" fill="#EC008C" transform="matrix(1 0 0 1.00129 -2.78571 111)"/><path d="M144.516 281.98 172.955 281.98 172.955 310.42 144.516 310.42Z" stroke="#FFFFFF" stroke-width="1.15984" stroke-miterlimit="10" fill="#EC008C" transform="matrix(1 0 0 1.00129 -2.78571 111)"/><path d="M201.395 225.055 229.834 225.055 229.834 253.495 201.395 253.495Z" stroke="#FFFFFF" stroke-width="1.15984" stroke-miterlimit="10" fill="#EC008C" transform="matrix(1 0 0 1.00129 -2.78571 111)"/><path d="M201.395 253.495 229.834 253.495 229.834 281.934 201.395 281.934Z" stroke="#FFFFFF" stroke-width="1.15984" stroke-miterlimit="10" fill="#EC008C" transform="matrix(1 0 0 1.00129 -2.78571 111)"/><path d="M201.395 281.934 229.834 281.934 229.834 310.373 201.395 310.373Z" stroke="#FFFFFF" stroke-width="1.15984" stroke-miterlimit="10" fill="#EC008C" transform="matrix(1 0 0 1.00129 -2.78571 111)"/><path d="M258.273 225.009 286.712 225.009 286.712 253.448 258.273 253.448Z" stroke="#FFFFFF" stroke-width="1.15984" stroke-miterlimit="10" fill="#EC008C" transform="matrix(1 0 0 1.00129 -2.78571 111)"/><path d="M258.273 253.448 286.712 253.448 286.712 281.888 258.273 281.888Z" stroke="#FFFFFF" stroke-width="1.15984" stroke-miterlimit="10" fill="#EC008C" transform="matrix(1 0 0 1.00129 -2.78571 111)"/><path d="M258.273 281.888 286.712 281.888 286.712 310.327 258.273 310.327Z" stroke="#FFFFFF" stroke-width="1.15984" stroke-miterlimit="10" fill="#EC008C" transform="matrix(1 0 0 1.00129 -2.78571 111)"/><path d="M229.834 196.662 258.273 196.662 258.273 225.102 229.834 225.102Z" stroke="#FFFFFF" stroke-width="1.15984" stroke-miterlimit="10" fill="#EC008C" transform="matrix(1 0 0 1.00129 -2.78571 111)"/></g></svg>